<svg width="14" height="10" viewBox="0 0 14 10" fill="none" xmlns="http://www.w3.org/2000/svg">
<path d="M5.3961 9.27955C5.26483 9.27981 5.13481 9.25416 5.01348 9.20405C4.89215 9.15394 4.78192 9.08036 4.6891 8.98755L0.447098 4.74455C0.351525 4.65237 0.275267 4.54208 0.222773 4.42011C0.17028 4.29814 0.142602 4.16694 0.141356 4.03417C0.140109 3.90139 0.165318 3.76969 0.215512 3.64676C0.265706 3.52383 0.33988 3.41213 0.433705 3.31817C0.52753 3.22421 0.639128 3.14988 0.761988 3.09951C0.884847 3.04915 1.01651 3.02375 1.14929 3.02481C1.28207 3.02587 1.4133 3.05336 1.53534 3.10568C1.65738 3.158 1.76778 3.2341 1.8601 3.32955L5.3951 6.86455L11.7601 0.501546C11.9476 0.313906 12.202 0.208437 12.4672 0.208344C12.7325 0.20825 12.987 0.313538 13.1746 0.501046C13.3622 0.688554 13.4677 0.942923 13.4678 1.20819C13.4679 1.47346 13.3626 1.72791 13.1751 1.91555L6.1031 8.98755C6.01028 9.08036 5.90004 9.15394 5.77872 9.20405C5.65739 9.25416 5.52736 9.27981 5.3961 9.27955Z" fill="#2FAB73"/>
</svg>
